<?xml version="1.0" encoding="UTF-8" standalone="no"?>
<!DOCTYPE svg PUBLIC "-//W3C//DTD SVG 1.1//EN"
 "http://www.w3.org/Graphics/SVG/1.1/DTD/svg11.dtd">
<!-- Generated by graphviz version 2.38.0 (20140413.2041)
 -->
<!-- Title: controllers_diagram Pages: 1 -->
<svg width="670pt" height="576pt"
 viewBox="0.00 0.00 670.35 575.67" xmlns="http://www.w3.org/2000/svg" xmlns:xlink="http://www.w3.org/1999/xlink">
<g id="graph0" class="graph" transform="scale(1 1) rotate(0) translate(231.899 305.5)">
<title>controllers_diagram</title>
<polygon fill="none" stroke="none" points="-231.899,270.173 -231.899,-305.5 438.45,-305.5 438.45,270.173 -231.899,270.173"/>
<!-- _diagram_info -->
<g id="node1" class="node"><title>_diagram_info</title>
<text text-anchor="start" x="235.55" y="-287.1" font-family="Times,serif" font-size="13.00">Controllers diagram</text>
<text text-anchor="start" x="235.55" y="-274.1" font-family="Times,serif" font-size="13.00">Date: Nov 23 2015 &#45; 12:11</text>
<text text-anchor="start" x="235.55" y="-261.1" font-family="Times,serif" font-size="13.00">Migration version: 20151123200216</text>
<text text-anchor="start" x="235.55" y="-248.1" font-family="Times,serif" font-size="13.00">Generated by RailRoady 1.4.1</text>
<text text-anchor="start" x="235.55" y="-235.1" font-family="Times,serif" font-size="13.00">http://railroady.prestonlee.com</text>
</g>
<!-- ApplicationController -->
<g id="node2" class="node"><title>ApplicationController</title>
<path fill="none" stroke="black" d="M-62.4378,91.8684C-62.4378,91.8684 53.2038,91.8684 53.2038,91.8684 59.2038,91.8684 65.2038,85.8684 65.2038,79.8684 65.2038,79.8684 65.2038,9.86843 65.2038,9.86843 65.2038,3.86843 59.2038,-2.13157 53.2038,-2.13157 53.2038,-2.13157 -62.4378,-2.13157 -62.4378,-2.13157 -68.4378,-2.13157 -74.4378,3.86843 -74.4378,9.86843 -74.4378,9.86843 -74.4378,79.8684 -74.4378,79.8684 -74.4378,85.8684 -68.4378,91.8684 -62.4378,91.8684"/>
<text text-anchor="middle" x="-4.61697" y="13.0684" font-family="Times,serif" font-size="14.00">ApplicationController</text>
<polyline fill="none" stroke="black" points="-74.4378,19.8684 65.2038,19.8684 "/>
<polyline fill="none" stroke="black" points="-74.4378,43.8684 65.2038,43.8684 "/>
<polyline fill="none" stroke="black" points="-74.4378,67.8684 65.2038,67.8684 "/>
</g>
<!-- ContestantsController -->
<g id="node3" class="node"><title>ContestantsController</title>
<path fill="none" stroke="black" d="M56.5073,262.825C56.5073,262.825 171.383,262.825 171.383,262.825 177.383,262.825 183.383,256.825 183.383,250.825 183.383,250.825 183.383,114.825 183.383,114.825 183.383,108.825 177.383,102.825 171.383,102.825 171.383,102.825 56.5073,102.825 56.5073,102.825 50.5073,102.825 44.5073,108.825 44.5073,114.825 44.5073,114.825 44.5073,250.825 44.5073,250.825 44.5073,256.825 50.5073,262.825 56.5073,262.825"/>
<text text-anchor="middle" x="113.945" y="118.025" font-family="Times,serif" font-size="14.00">ContestantsController</text>
<polyline fill="none" stroke="black" points="44.5073,124.825 183.383,124.825 "/>
<text text-anchor="start" x="52.5073" y="140.025" font-family="Times,serif" font-size="14.00">create</text>
<text text-anchor="start" x="52.5073" y="154.025" font-family="Times,serif" font-size="14.00">destroy</text>
<text text-anchor="start" x="52.5073" y="168.025" font-family="Times,serif" font-size="14.00">index</text>
<text text-anchor="start" x="52.5073" y="182.025" font-family="Times,serif" font-size="14.00">show</text>
<text text-anchor="start" x="52.5073" y="196.025" font-family="Times,serif" font-size="14.00">update</text>
<polyline fill="none" stroke="black" points="44.5073,202.825 183.383,202.825 "/>
<polyline fill="none" stroke="black" points="44.5073,226.825 183.383,226.825 "/>
<text text-anchor="start" x="52.5073" y="242.025" font-family="Times,serif" font-size="14.00">contestant_params</text>
<text text-anchor="start" x="52.5073" y="256.025" font-family="Times,serif" font-size="14.00">set_contestant</text>
</g>
<!-- ApplicationController&#45;&gt;ContestantsController -->
<g id="edge1" class="edge"><title>ApplicationController&#45;&gt;ContestantsController</title>
<path fill="none" stroke="black" d="M35.8538,91.9595C38.8055,95.394 41.8266,98.9093 44.8833,102.466"/>
</g>
<!-- EpisodesController -->
<g id="node4" class="node"><title>EpisodesController</title>
<path fill="none" stroke="black" d="M-180.19,265.673C-180.19,265.673 -80.0932,265.673 -80.0932,265.673 -74.0932,265.673 -68.0932,259.673 -68.0932,253.673 -68.0932,253.673 -68.0932,117.673 -68.0932,117.673 -68.0932,111.673 -74.0932,105.673 -80.0932,105.673 -80.0932,105.673 -180.19,105.673 -180.19,105.673 -186.19,105.673 -192.19,111.673 -192.19,117.673 -192.19,117.673 -192.19,253.673 -192.19,253.673 -192.19,259.673 -186.19,265.673 -180.19,265.673"/>
<text text-anchor="middle" x="-130.142" y="120.873" font-family="Times,serif" font-size="14.00">EpisodesController</text>
<polyline fill="none" stroke="black" points="-192.19,127.673 -68.0932,127.673 "/>
<text text-anchor="start" x="-184.19" y="142.873" font-family="Times,serif" font-size="14.00">create</text>
<text text-anchor="start" x="-184.19" y="156.873" font-family="Times,serif" font-size="14.00">destroy</text>
<text text-anchor="start" x="-184.19" y="170.873" font-family="Times,serif" font-size="14.00">index</text>
<text text-anchor="start" x="-184.19" y="184.873" font-family="Times,serif" font-size="14.00">show</text>
<text text-anchor="start" x="-184.19" y="198.873" font-family="Times,serif" font-size="14.00">update</text>
<polyline fill="none" stroke="black" points="-192.19,205.673 -68.0932,205.673 "/>
<polyline fill="none" stroke="black" points="-192.19,229.673 -68.0932,229.673 "/>
<text text-anchor="start" x="-184.19" y="244.873" font-family="Times,serif" font-size="14.00">episode_params</text>
<text text-anchor="start" x="-184.19" y="258.873" font-family="Times,serif" font-size="14.00">set_episode</text>
</g>
<!-- ApplicationController&#45;&gt;EpisodesController -->
<g id="edge2" class="edge"><title>ApplicationController&#45;&gt;EpisodesController</title>
<path fill="none" stroke="black" d="M-46.764,92.146C-53.6015,99.8157 -60.8061,107.897 -67.9998,115.967"/>
</g>
<!-- LeaguesController -->
<g id="node5" class="node"><title>LeaguesController</title>
<path fill="none" stroke="black" d="M-215.899,10.9241C-215.899,10.9241 -119.712,10.9241 -119.712,10.9241 -113.712,10.9241 -107.712,4.92405 -107.712,-1.07595 -107.712,-1.07595 -107.712,-137.076 -107.712,-137.076 -107.712,-143.076 -113.712,-149.076 -119.712,-149.076 -119.712,-149.076 -215.899,-149.076 -215.899,-149.076 -221.899,-149.076 -227.899,-143.076 -227.899,-137.076 -227.899,-137.076 -227.899,-1.07595 -227.899,-1.07595 -227.899,4.92405 -221.899,10.9241 -215.899,10.9241"/>
<text text-anchor="middle" x="-167.805" y="-133.876" font-family="Times,serif" font-size="14.00">LeaguesController</text>
<polyline fill="none" stroke="black" points="-227.899,-127.076 -107.712,-127.076 "/>
<text text-anchor="start" x="-219.899" y="-111.876" font-family="Times,serif" font-size="14.00">create</text>
<text text-anchor="start" x="-219.899" y="-97.8759" font-family="Times,serif" font-size="14.00">destroy</text>
<text text-anchor="start" x="-219.899" y="-83.8759" font-family="Times,serif" font-size="14.00">index</text>
<text text-anchor="start" x="-219.899" y="-69.8759" font-family="Times,serif" font-size="14.00">show</text>
<text text-anchor="start" x="-219.899" y="-55.8759" font-family="Times,serif" font-size="14.00">update</text>
<polyline fill="none" stroke="black" points="-227.899,-49.0759 -107.712,-49.0759 "/>
<polyline fill="none" stroke="black" points="-227.899,-25.0759 -107.712,-25.0759 "/>
<text text-anchor="start" x="-219.899" y="-9.87595" font-family="Times,serif" font-size="14.00">league_params</text>
<text text-anchor="start" x="-219.899" y="4.12405" font-family="Times,serif" font-size="14.00">set_league</text>
</g>
<!-- ApplicationController&#45;&gt;LeaguesController -->
<g id="edge3" class="edge"><title>ApplicationController&#45;&gt;LeaguesController</title>
<path fill="none" stroke="black" d="M-71.9341,-2.13496C-83.7868,-10.4109 -96.0542,-18.9765 -107.694,-27.1037"/>
</g>
<!-- SeasonsController -->
<g id="node6" class="node"><title>SeasonsController</title>
<path fill="none" stroke="black" d="M93.2731,-5.8325C93.2731,-5.8325 187.928,-5.8325 187.928,-5.8325 193.928,-5.8325 199.928,-11.8325 199.928,-17.8325 199.928,-17.8325 199.928,-153.833 199.928,-153.833 199.928,-159.833 193.928,-165.833 187.928,-165.833 187.928,-165.833 93.2731,-165.833 93.2731,-165.833 87.2731,-165.833 81.2731,-159.833 81.2731,-153.833 81.2731,-153.833 81.2731,-17.8325 81.2731,-17.8325 81.2731,-11.8325 87.2731,-5.8325 93.2731,-5.8325"/>
<text text-anchor="middle" x="140.601" y="-150.633" font-family="Times,serif" font-size="14.00">SeasonsController</text>
<polyline fill="none" stroke="black" points="81.2731,-143.833 199.928,-143.833 "/>
<text text-anchor="start" x="89.2731" y="-128.633" font-family="Times,serif" font-size="14.00">create</text>
<text text-anchor="start" x="89.2731" y="-114.633" font-family="Times,serif" font-size="14.00">destroy</text>
<text text-anchor="start" x="89.2731" y="-100.633" font-family="Times,serif" font-size="14.00">index</text>
<text text-anchor="start" x="89.2731" y="-86.6325" font-family="Times,serif" font-size="14.00">show</text>
<text text-anchor="start" x="89.2731" y="-72.6325" font-family="Times,serif" font-size="14.00">update</text>
<polyline fill="none" stroke="black" points="81.2731,-65.8325 199.928,-65.8325 "/>
<polyline fill="none" stroke="black" points="81.2731,-41.8325 199.928,-41.8325 "/>
<text text-anchor="start" x="89.2731" y="-26.6325" font-family="Times,serif" font-size="14.00">season_params</text>
<text text-anchor="start" x="89.2731" y="-12.6325" font-family="Times,serif" font-size="14.00">set_season</text>
</g>
<!-- ApplicationController&#45;&gt;SeasonsController -->
<g id="edge4" class="edge"><title>ApplicationController&#45;&gt;SeasonsController</title>
<path fill="none" stroke="black" d="M47.81,-2.31761C58.5339,-11.9695 69.8959,-22.1957 80.8541,-32.0584"/>
</g>
<!-- ShowsController -->
<g id="node7" class="node"><title>ShowsController</title>
<path fill="none" stroke="black" d="M-69.9014,-66.1518C-69.9014,-66.1518 16.9882,-66.1518 16.9882,-66.1518 22.9882,-66.1518 28.9882,-72.1518 28.9882,-78.1518 28.9882,-78.1518 28.9882,-214.152 28.9882,-214.152 28.9882,-220.152 22.9882,-226.152 16.9882,-226.152 16.9882,-226.152 -69.9014,-226.152 -69.9014,-226.152 -75.9014,-226.152 -81.9014,-220.152 -81.9014,-214.152 -81.9014,-214.152 -81.9014,-78.1518 -81.9014,-78.1518 -81.9014,-72.1518 -75.9014,-66.1518 -69.9014,-66.1518"/>
<text text-anchor="middle" x="-26.4566" y="-210.952" font-family="Times,serif" font-size="14.00">ShowsController</text>
<polyline fill="none" stroke="black" points="-81.9014,-204.152 28.9882,-204.152 "/>
<text text-anchor="start" x="-73.9014" y="-188.952" font-family="Times,serif" font-size="14.00">create</text>
<text text-anchor="start" x="-73.9014" y="-174.952" font-family="Times,serif" font-size="14.00">destroy</text>
<text text-anchor="start" x="-73.9014" y="-160.952" font-family="Times,serif" font-size="14.00">index</text>
<text text-anchor="start" x="-73.9014" y="-146.952" font-family="Times,serif" font-size="14.00">show</text>
<text text-anchor="start" x="-73.9014" y="-132.952" font-family="Times,serif" font-size="14.00">update</text>
<polyline fill="none" stroke="black" points="-81.9014,-126.152 28.9882,-126.152 "/>
<polyline fill="none" stroke="black" points="-81.9014,-102.152 28.9882,-102.152 "/>
<text text-anchor="start" x="-73.9014" y="-86.9518" font-family="Times,serif" font-size="14.00">set_show</text>
<text text-anchor="start" x="-73.9014" y="-72.9518" font-family="Times,serif" font-size="14.00">show_params</text>
</g>
<!-- ApplicationController&#45;&gt;ShowsController -->
<g id="edge5" class="edge"><title>ApplicationController&#45;&gt;ShowsController</title>
<path fill="none" stroke="black" d="M-10.0155,-2.35006C-12.2134,-21.5738 -14.8163,-44.3397 -17.295,-66.0198"/>
</g>
</g>
</svg>
