<?xml version="1.0" encoding="UTF-8" standalone="no"?>
<!DOCTYPE svg PUBLIC "-//W3C//DTD SVG 1.1//EN"
 "http://www.w3.org/Graphics/SVG/1.1/DTD/svg11.dtd">
<!-- Generated by graphviz version 2.38.0 (20140413.2041)
 -->
<!-- Title: models_diagram Pages: 1 -->
<svg width="649pt" height="1231pt"
 viewBox="0.00 0.00 649.33 1231.00" xmlns="http://www.w3.org/2000/svg" xmlns:xlink="http://www.w3.org/1999/xlink">
<g id="graph0" class="graph" transform="scale(1 1) rotate(0) translate(4 1227)">
<title>models_diagram</title>
<polygon fill="none" stroke="none" points="-4,4 -4,-1227 645.334,-1227 645.334,4 -4,4"/>
<!-- _diagram_info -->
<g id="node1" class="node"><title>_diagram_info</title>
<text text-anchor="start" x="65.8372" y="-1208.6" font-family="Times,serif" font-size="13.00">Models diagram</text>
<text text-anchor="start" x="65.8372" y="-1195.6" font-family="Times,serif" font-size="13.00">Date: Nov 23 2015 &#45; 12:11</text>
<text text-anchor="start" x="65.8372" y="-1182.6" font-family="Times,serif" font-size="13.00">Migration version: 20151123200216</text>
<text text-anchor="start" x="65.8372" y="-1169.6" font-family="Times,serif" font-size="13.00">Generated by RailRoady 1.4.1</text>
<text text-anchor="start" x="65.8372" y="-1156.6" font-family="Times,serif" font-size="13.00">http://railroady.prestonlee.com</text>
</g>
<!-- Contestant -->
<g id="node2" class="node"><title>Contestant</title>
<path fill="none" stroke="black" d="M243.737,-929.5C243.737,-929.5 376.837,-929.5 376.837,-929.5 382.837,-929.5 388.837,-935.5 388.837,-941.5 388.837,-941.5 388.837,-1101.5 388.837,-1101.5 388.837,-1107.5 382.837,-1113.5 376.837,-1113.5 376.837,-1113.5 243.737,-1113.5 243.737,-1113.5 237.737,-1113.5 231.737,-1107.5 231.737,-1101.5 231.737,-1101.5 231.737,-941.5 231.737,-941.5 231.737,-935.5 237.737,-929.5 243.737,-929.5"/>
<text text-anchor="middle" x="310.287" y="-1098.3" font-family="Times,serif" font-size="14.00">Contestant</text>
<polyline fill="none" stroke="black" points="231.737,-1091.5 388.837,-1091.5 "/>
<text text-anchor="start" x="239.737" y="-1076.3" font-family="Times,serif" font-size="14.00">id :INTEGER</text>
<text text-anchor="start" x="239.737" y="-1062.3" font-family="Times,serif" font-size="14.00">name :varchar(255)</text>
<text text-anchor="start" x="239.737" y="-1048.3" font-family="Times,serif" font-size="14.00">image :varchar(255)</text>
<text text-anchor="start" x="239.737" y="-1034.3" font-family="Times,serif" font-size="14.00">age :integer</text>
<text text-anchor="start" x="239.737" y="-1020.3" font-family="Times,serif" font-size="14.00">gender :varchar(255)</text>
<text text-anchor="start" x="239.737" y="-1006.3" font-family="Times,serif" font-size="14.00">occupation :varchar(255)</text>
<text text-anchor="start" x="239.737" y="-992.3" font-family="Times,serif" font-size="14.00">description :text</text>
<text text-anchor="start" x="239.737" y="-978.3" font-family="Times,serif" font-size="14.00">active :boolean</text>
<text text-anchor="start" x="239.737" y="-964.3" font-family="Times,serif" font-size="14.00">published :boolean</text>
<text text-anchor="start" x="239.737" y="-950.3" font-family="Times,serif" font-size="14.00">created_at :datetime</text>
<text text-anchor="start" x="239.737" y="-936.3" font-family="Times,serif" font-size="14.00">updated_at :datetime</text>
</g>
<!-- Season -->
<g id="node7" class="node"><title>Season</title>
<path fill="none" stroke="black" d="M246.461,-624.5C246.461,-624.5 374.113,-624.5 374.113,-624.5 380.113,-624.5 386.113,-630.5 386.113,-636.5 386.113,-636.5 386.113,-880.5 386.113,-880.5 386.113,-886.5 380.113,-892.5 374.113,-892.5 374.113,-892.5 246.461,-892.5 246.461,-892.5 240.461,-892.5 234.461,-886.5 234.461,-880.5 234.461,-880.5 234.461,-636.5 234.461,-636.5 234.461,-630.5 240.461,-624.5 246.461,-624.5"/>
<text text-anchor="middle" x="310.287" y="-877.3" font-family="Times,serif" font-size="14.00">Season</text>
<polyline fill="none" stroke="black" points="234.461,-870.5 386.113,-870.5 "/>
<text text-anchor="start" x="242.461" y="-855.3" font-family="Times,serif" font-size="14.00">id :INTEGER</text>
<text text-anchor="start" x="242.461" y="-841.3" font-family="Times,serif" font-size="14.00">name :varchar(255)</text>
<text text-anchor="start" x="242.461" y="-827.3" font-family="Times,serif" font-size="14.00">number :integer</text>
<text text-anchor="start" x="242.461" y="-813.3" font-family="Times,serif" font-size="14.00">show_id :integer</text>
<text text-anchor="start" x="242.461" y="-799.3" font-family="Times,serif" font-size="14.00">country_origin :integer</text>
<text text-anchor="start" x="242.461" y="-785.3" font-family="Times,serif" font-size="14.00">type :varchar(255)</text>
<text text-anchor="start" x="242.461" y="-771.3" font-family="Times,serif" font-size="14.00">description :text</text>
<text text-anchor="start" x="242.461" y="-757.3" font-family="Times,serif" font-size="14.00">image :varchar(255)</text>
<text text-anchor="start" x="242.461" y="-743.3" font-family="Times,serif" font-size="14.00">website :varchar(255)</text>
<text text-anchor="start" x="242.461" y="-729.3" font-family="Times,serif" font-size="14.00">network :integer</text>
<text text-anchor="start" x="242.461" y="-715.3" font-family="Times,serif" font-size="14.00">premiere_date :datetime</text>
<text text-anchor="start" x="242.461" y="-701.3" font-family="Times,serif" font-size="14.00">finale_date :datetime</text>
<text text-anchor="start" x="242.461" y="-687.3" font-family="Times,serif" font-size="14.00">episode_count :integer</text>
<text text-anchor="start" x="242.461" y="-673.3" font-family="Times,serif" font-size="14.00">active :boolean</text>
<text text-anchor="start" x="242.461" y="-659.3" font-family="Times,serif" font-size="14.00">published :boolean</text>
<text text-anchor="start" x="242.461" y="-645.3" font-family="Times,serif" font-size="14.00">created_at :datetime</text>
<text text-anchor="start" x="242.461" y="-631.3" font-family="Times,serif" font-size="14.00">updated_at :datetime</text>
</g>
<!-- Contestant&#45;&gt;Season -->
<g id="edge1" class="edge"><title>Contestant&#45;&gt;Season</title>
<path fill="none" stroke="#58f498" d="M310.287,-919.064C310.287,-913.61 310.287,-908.084 310.287,-902.528"/>
<polygon fill="#58f498" stroke="#58f498" points="310.287,-919.215 305.787,-929.215 310.287,-924.215 310.287,-929.215 310.287,-929.215 310.287,-929.215 310.287,-924.215 314.787,-929.215 310.287,-919.215 310.287,-919.215"/>
<polygon fill="#58f498" stroke="#58f498" points="310.287,-902.503 314.787,-892.503 310.287,-897.503 310.287,-892.503 310.287,-892.503 310.287,-892.503 310.287,-897.503 305.787,-892.503 310.287,-902.503 310.287,-902.503"/>
</g>
<!-- Elimination -->
<g id="node3" class="node"><title>Elimination</title>
<path fill="none" stroke="black" d="M223.24,-7.5C223.24,-7.5 391.334,-7.5 391.334,-7.5 397.334,-7.5 403.334,-13.5 403.334,-19.5 403.334,-19.5 403.334,-263.5 403.334,-263.5 403.334,-269.5 397.334,-275.5 391.334,-275.5 391.334,-275.5 223.24,-275.5 223.24,-275.5 217.24,-275.5 211.24,-269.5 211.24,-263.5 211.24,-263.5 211.24,-19.5 211.24,-19.5 211.24,-13.5 217.24,-7.5 223.24,-7.5"/>
<text text-anchor="middle" x="307.287" y="-260.3" font-family="Times,serif" font-size="14.00">Elimination</text>
<polyline fill="none" stroke="black" points="211.24,-253.5 403.334,-253.5 "/>
<text text-anchor="start" x="219.24" y="-238.3" font-family="Times,serif" font-size="14.00">id :INTEGER</text>
<text text-anchor="start" x="219.24" y="-224.3" font-family="Times,serif" font-size="14.00">name :varchar(255)</text>
<text text-anchor="start" x="219.24" y="-210.3" font-family="Times,serif" font-size="14.00">season_id :integer</text>
<text text-anchor="start" x="219.24" y="-196.3" font-family="Times,serif" font-size="14.00">type :varchar(255)</text>
<text text-anchor="start" x="219.24" y="-182.3" font-family="Times,serif" font-size="14.00">participant_cap :integer</text>
<text text-anchor="start" x="219.24" y="-168.3" font-family="Times,serif" font-size="14.00">draft_limit :integer</text>
<text text-anchor="start" x="219.24" y="-154.3" font-family="Times,serif" font-size="14.00">draft_date :datetime</text>
<text text-anchor="start" x="219.24" y="-140.3" font-family="Times,serif" font-size="14.00">draft_order :varchar(255)</text>
<text text-anchor="start" x="219.24" y="-126.3" font-family="Times,serif" font-size="14.00">league_key :varchar(255)</text>
<text text-anchor="start" x="219.24" y="-112.3" font-family="Times,serif" font-size="14.00">league_password :varchar(255)</text>
<text text-anchor="start" x="219.24" y="-98.3" font-family="Times,serif" font-size="14.00">private :boolean</text>
<text text-anchor="start" x="219.24" y="-84.3" font-family="Times,serif" font-size="14.00">active :boolean</text>
<text text-anchor="start" x="219.24" y="-70.3" font-family="Times,serif" font-size="14.00">published :boolean</text>
<text text-anchor="start" x="219.24" y="-56.3" font-family="Times,serif" font-size="14.00">full :boolean</text>
<text text-anchor="start" x="219.24" y="-42.3" font-family="Times,serif" font-size="14.00">locked :boolean</text>
<text text-anchor="start" x="219.24" y="-28.3" font-family="Times,serif" font-size="14.00">created_at :datetime</text>
<text text-anchor="start" x="219.24" y="-14.3" font-family="Times,serif" font-size="14.00">updated_at :datetime</text>
</g>
<!-- Episode -->
<g id="node4" class="node"><title>Episode</title>
<path fill="none" stroke="black" d="M67.7747,-382.5C67.7747,-382.5 190.799,-382.5 190.799,-382.5 196.799,-382.5 202.799,-388.5 202.799,-394.5 202.799,-394.5 202.799,-512.5 202.799,-512.5 202.799,-518.5 196.799,-524.5 190.799,-524.5 190.799,-524.5 67.7747,-524.5 67.7747,-524.5 61.7747,-524.5 55.7747,-518.5 55.7747,-512.5 55.7747,-512.5 55.7747,-394.5 55.7747,-394.5 55.7747,-388.5 61.7747,-382.5 67.7747,-382.5"/>
<text text-anchor="middle" x="129.287" y="-509.3" font-family="Times,serif" font-size="14.00">Episode</text>
<polyline fill="none" stroke="black" points="55.7747,-502.5 202.799,-502.5 "/>
<text text-anchor="start" x="63.7747" y="-487.3" font-family="Times,serif" font-size="14.00">id :INTEGER</text>
<text text-anchor="start" x="63.7747" y="-473.3" font-family="Times,serif" font-size="14.00">season_id :integer</text>
<text text-anchor="start" x="63.7747" y="-459.3" font-family="Times,serif" font-size="14.00">air_date :datetime</text>
<text text-anchor="start" x="63.7747" y="-445.3" font-family="Times,serif" font-size="14.00">survivor_count :integer</text>
<text text-anchor="start" x="63.7747" y="-431.3" font-family="Times,serif" font-size="14.00">published :boolean</text>
<text text-anchor="start" x="63.7747" y="-417.3" font-family="Times,serif" font-size="14.00">aired :boolean</text>
<text text-anchor="start" x="63.7747" y="-403.3" font-family="Times,serif" font-size="14.00">created_at :datetime</text>
<text text-anchor="start" x="63.7747" y="-389.3" font-family="Times,serif" font-size="14.00">updated_at :datetime</text>
</g>
<!-- Fantasy -->
<g id="node5" class="node"><title>Fantasy</title>
<path fill="none" stroke="black" d="M13.24,-7.5C13.24,-7.5 181.334,-7.5 181.334,-7.5 187.334,-7.5 193.334,-13.5 193.334,-19.5 193.334,-19.5 193.334,-263.5 193.334,-263.5 193.334,-269.5 187.334,-275.5 181.334,-275.5 181.334,-275.5 13.24,-275.5 13.24,-275.5 7.24005,-275.5 1.24005,-269.5 1.24005,-263.5 1.24005,-263.5 1.24005,-19.5 1.24005,-19.5 1.24005,-13.5 7.24005,-7.5 13.24,-7.5"/>
<text text-anchor="middle" x="97.2869" y="-260.3" font-family="Times,serif" font-size="14.00">Fantasy</text>
<polyline fill="none" stroke="black" points="1.24005,-253.5 193.334,-253.5 "/>
<text text-anchor="start" x="9.24005" y="-238.3" font-family="Times,serif" font-size="14.00">id :INTEGER</text>
<text text-anchor="start" x="9.24005" y="-224.3" font-family="Times,serif" font-size="14.00">name :varchar(255)</text>
<text text-anchor="start" x="9.24005" y="-210.3" font-family="Times,serif" font-size="14.00">season_id :integer</text>
<text text-anchor="start" x="9.24005" y="-196.3" font-family="Times,serif" font-size="14.00">type :varchar(255)</text>
<text text-anchor="start" x="9.24005" y="-182.3" font-family="Times,serif" font-size="14.00">participant_cap :integer</text>
<text text-anchor="start" x="9.24005" y="-168.3" font-family="Times,serif" font-size="14.00">draft_limit :integer</text>
<text text-anchor="start" x="9.24005" y="-154.3" font-family="Times,serif" font-size="14.00">draft_date :datetime</text>
<text text-anchor="start" x="9.24005" y="-140.3" font-family="Times,serif" font-size="14.00">draft_order :varchar(255)</text>
<text text-anchor="start" x="9.24005" y="-126.3" font-family="Times,serif" font-size="14.00">league_key :varchar(255)</text>
<text text-anchor="start" x="9.24005" y="-112.3" font-family="Times,serif" font-size="14.00">league_password :varchar(255)</text>
<text text-anchor="start" x="9.24005" y="-98.3" font-family="Times,serif" font-size="14.00">private :boolean</text>
<text text-anchor="start" x="9.24005" y="-84.3" font-family="Times,serif" font-size="14.00">active :boolean</text>
<text text-anchor="start" x="9.24005" y="-70.3" font-family="Times,serif" font-size="14.00">published :boolean</text>
<text text-anchor="start" x="9.24005" y="-56.3" font-family="Times,serif" font-size="14.00">full :boolean</text>
<text text-anchor="start" x="9.24005" y="-42.3" font-family="Times,serif" font-size="14.00">locked :boolean</text>
<text text-anchor="start" x="9.24005" y="-28.3" font-family="Times,serif" font-size="14.00">created_at :datetime</text>
<text text-anchor="start" x="9.24005" y="-14.3" font-family="Times,serif" font-size="14.00">updated_at :datetime</text>
</g>
<!-- League -->
<g id="node6" class="node"><title>League</title>
<path fill="none" stroke="black" d="M233.24,-319.5C233.24,-319.5 401.334,-319.5 401.334,-319.5 407.334,-319.5 413.334,-325.5 413.334,-331.5 413.334,-331.5 413.334,-575.5 413.334,-575.5 413.334,-581.5 407.334,-587.5 401.334,-587.5 401.334,-587.5 233.24,-587.5 233.24,-587.5 227.24,-587.5 221.24,-581.5 221.24,-575.5 221.24,-575.5 221.24,-331.5 221.24,-331.5 221.24,-325.5 227.24,-319.5 233.24,-319.5"/>
<text text-anchor="middle" x="317.287" y="-572.3" font-family="Times,serif" font-size="14.00">League</text>
<polyline fill="none" stroke="black" points="221.24,-565.5 413.334,-565.5 "/>
<text text-anchor="start" x="229.24" y="-550.3" font-family="Times,serif" font-size="14.00">id :INTEGER</text>
<text text-anchor="start" x="229.24" y="-536.3" font-family="Times,serif" font-size="14.00">name :varchar(255)</text>
<text text-anchor="start" x="229.24" y="-522.3" font-family="Times,serif" font-size="14.00">season_id :integer</text>
<text text-anchor="start" x="229.24" y="-508.3" font-family="Times,serif" font-size="14.00">type :varchar(255)</text>
<text text-anchor="start" x="229.24" y="-494.3" font-family="Times,serif" font-size="14.00">participant_cap :integer</text>
<text text-anchor="start" x="229.24" y="-480.3" font-family="Times,serif" font-size="14.00">draft_limit :integer</text>
<text text-anchor="start" x="229.24" y="-466.3" font-family="Times,serif" font-size="14.00">draft_date :datetime</text>
<text text-anchor="start" x="229.24" y="-452.3" font-family="Times,serif" font-size="14.00">draft_order :varchar(255)</text>
<text text-anchor="start" x="229.24" y="-438.3" font-family="Times,serif" font-size="14.00">league_key :varchar(255)</text>
<text text-anchor="start" x="229.24" y="-424.3" font-family="Times,serif" font-size="14.00">league_password :varchar(255)</text>
<text text-anchor="start" x="229.24" y="-410.3" font-family="Times,serif" font-size="14.00">private :boolean</text>
<text text-anchor="start" x="229.24" y="-396.3" font-family="Times,serif" font-size="14.00">active :boolean</text>
<text text-anchor="start" x="229.24" y="-382.3" font-family="Times,serif" font-size="14.00">published :boolean</text>
<text text-anchor="start" x="229.24" y="-368.3" font-family="Times,serif" font-size="14.00">full :boolean</text>
<text text-anchor="start" x="229.24" y="-354.3" font-family="Times,serif" font-size="14.00">locked :boolean</text>
<text text-anchor="start" x="229.24" y="-340.3" font-family="Times,serif" font-size="14.00">created_at :datetime</text>
<text text-anchor="start" x="229.24" y="-326.3" font-family="Times,serif" font-size="14.00">updated_at :datetime</text>
</g>
<!-- League&#45;&gt;Elimination -->
<g id="edge3" class="edge"><title>League&#45;&gt;Elimination</title>
<path fill="none" stroke="black" d="M312.988,-319.233C312.522,-304.792 312.048,-290.094 311.582,-275.654"/>
</g>
<!-- League&#45;&gt;Fantasy -->
<g id="edge5" class="edge"><title>League&#45;&gt;Fantasy</title>
<path fill="none" stroke="black" d="M222.71,-319.233C212.462,-304.792 202.031,-290.094 191.784,-275.654"/>
</g>
<!-- User -->
<g id="node9" class="node"><title>User</title>
<path fill="none" stroke="black" d="M433.24,-0.5C433.24,-0.5 629.334,-0.5 629.334,-0.5 635.334,-0.5 641.334,-6.5 641.334,-12.5 641.334,-12.5 641.334,-270.5 641.334,-270.5 641.334,-276.5 635.334,-282.5 629.334,-282.5 629.334,-282.5 433.24,-282.5 433.24,-282.5 427.24,-282.5 421.24,-276.5 421.24,-270.5 421.24,-270.5 421.24,-12.5 421.24,-12.5 421.24,-6.5 427.24,-0.5 433.24,-0.5"/>
<text text-anchor="middle" x="531.287" y="-267.3" font-family="Times,serif" font-size="14.00">User</text>
<polyline fill="none" stroke="black" points="421.24,-260.5 641.334,-260.5 "/>
<text text-anchor="start" x="429.24" y="-245.3" font-family="Times,serif" font-size="14.00">id :INTEGER</text>
<text text-anchor="start" x="429.24" y="-231.3" font-family="Times,serif" font-size="14.00">email :varchar(255)</text>
<text text-anchor="start" x="429.24" y="-217.3" font-family="Times,serif" font-size="14.00">encrypted_password :varchar(255)</text>
<text text-anchor="start" x="429.24" y="-203.3" font-family="Times,serif" font-size="14.00">reset_password_token :varchar(255)</text>
<text text-anchor="start" x="429.24" y="-189.3" font-family="Times,serif" font-size="14.00">reset_password_sent_at :datetime</text>
<text text-anchor="start" x="429.24" y="-175.3" font-family="Times,serif" font-size="14.00">remember_created_at :datetime</text>
<text text-anchor="start" x="429.24" y="-161.3" font-family="Times,serif" font-size="14.00">sign_in_count :integer</text>
<text text-anchor="start" x="429.24" y="-147.3" font-family="Times,serif" font-size="14.00">current_sign_in_at :datetime</text>
<text text-anchor="start" x="429.24" y="-133.3" font-family="Times,serif" font-size="14.00">last_sign_in_at :datetime</text>
<text text-anchor="start" x="429.24" y="-119.3" font-family="Times,serif" font-size="14.00">current_sign_in_ip :varchar(255)</text>
<text text-anchor="start" x="429.24" y="-105.3" font-family="Times,serif" font-size="14.00">last_sign_in_ip :varchar(255)</text>
<text text-anchor="start" x="429.24" y="-91.3" font-family="Times,serif" font-size="14.00">confirmation_token :varchar(255)</text>
<text text-anchor="start" x="429.24" y="-77.3" font-family="Times,serif" font-size="14.00">confirmed_at :datetime</text>
<text text-anchor="start" x="429.24" y="-63.3" font-family="Times,serif" font-size="14.00">confirmation_sent_at :datetime</text>
<text text-anchor="start" x="429.24" y="-49.3" font-family="Times,serif" font-size="14.00">created_at :datetime</text>
<text text-anchor="start" x="429.24" y="-35.3" font-family="Times,serif" font-size="14.00">updated_at :datetime</text>
<text text-anchor="start" x="429.24" y="-21.3" font-family="Times,serif" font-size="14.00">admin :boolean</text>
<text text-anchor="start" x="429.24" y="-7.3" font-family="Times,serif" font-size="14.00">lifetime_score :integer</text>
</g>
<!-- League&#45;&gt;User -->
<g id="edge6" class="edge"><title>League&#45;&gt;User</title>
<path fill="none" stroke="#ab709c" d="M414.999,-310.955C419.583,-304.315 424.189,-297.641 428.785,-290.984"/>
<polygon fill="#ab709c" stroke="#ab709c" points="414.965,-311.003 405.581,-316.677 412.125,-315.118 409.284,-319.233 409.284,-319.233 409.284,-319.233 412.125,-315.118 412.987,-321.79 414.965,-311.003 414.965,-311.003"/>
<polygon fill="#ab709c" stroke="#ab709c" points="428.917,-290.793 438.301,-285.12 431.757,-286.678 434.598,-282.564 434.598,-282.564 434.598,-282.564 431.757,-286.678 430.895,-280.007 428.917,-290.793 428.917,-290.793"/>
</g>
<!-- Season&#45;&gt;Episode -->
<g id="edge9" class="edge"><title>Season&#45;&gt;Episode</title>
<path fill="none" stroke="#b4d107" d="M230.002,-623.1C211.72,-592.496 192.875,-560.948 176.502,-533.54"/>
<ellipse fill="none" stroke="#b4d107" cx="232.262" cy="-626.884" rx="4.00002" ry="4.00002"/>
<polygon fill="#b4d107" stroke="#b4d107" points="176.405,-533.378 175.14,-522.485 173.841,-529.085 171.277,-524.793 171.277,-524.793 171.277,-524.793 173.841,-529.085 167.414,-527.101 176.405,-533.378 176.405,-533.378"/>
</g>
<!-- Season&#45;&gt;League -->
<g id="edge8" class="edge"><title>Season&#45;&gt;League</title>
<path fill="none" stroke="#867288" d="M313.557,-615.937C313.696,-609.931 313.835,-603.904 313.974,-597.894"/>
<ellipse fill="none" stroke="#867288" cx="313.46" cy="-620.16" rx="4" ry="4"/>
<polygon fill="#867288" stroke="#867288" points="313.976,-597.801 318.706,-587.907 314.092,-592.802 314.207,-587.803 314.207,-587.803 314.207,-587.803 314.092,-592.802 309.709,-587.699 313.976,-597.801 313.976,-597.801"/>
</g>
<!-- Show -->
<g id="node8" class="node"><title>Show</title>
<path fill="none" stroke="black" d="M92.7816,-957.5C92.7816,-957.5 201.792,-957.5 201.792,-957.5 207.792,-957.5 213.792,-963.5 213.792,-969.5 213.792,-969.5 213.792,-1073.5 213.792,-1073.5 213.792,-1079.5 207.792,-1085.5 201.792,-1085.5 201.792,-1085.5 92.7816,-1085.5 92.7816,-1085.5 86.7816,-1085.5 80.7816,-1079.5 80.7816,-1073.5 80.7816,-1073.5 80.7816,-969.5 80.7816,-969.5 80.7816,-963.5 86.7816,-957.5 92.7816,-957.5"/>
<text text-anchor="middle" x="147.287" y="-1070.3" font-family="Times,serif" font-size="14.00">Show</text>
<polyline fill="none" stroke="black" points="80.7816,-1063.5 213.792,-1063.5 "/>
<text text-anchor="start" x="88.7816" y="-1048.3" font-family="Times,serif" font-size="14.00">id :INTEGER</text>
<text text-anchor="start" x="88.7816" y="-1034.3" font-family="Times,serif" font-size="14.00">name :varchar(255)</text>
<text text-anchor="start" x="88.7816" y="-1020.3" font-family="Times,serif" font-size="14.00">image :varchar(255)</text>
<text text-anchor="start" x="88.7816" y="-1006.3" font-family="Times,serif" font-size="14.00">active :boolean</text>
<text text-anchor="start" x="88.7816" y="-992.3" font-family="Times,serif" font-size="14.00">published :boolean</text>
<text text-anchor="start" x="88.7816" y="-978.3" font-family="Times,serif" font-size="14.00">created_at :datetime</text>
<text text-anchor="start" x="88.7816" y="-964.3" font-family="Times,serif" font-size="14.00">updated_at :datetime</text>
</g>
<!-- Show&#45;&gt;Episode -->
<g id="edge12" class="edge"><title>Show&#45;&gt;Episode</title>
<path fill="none" stroke="#5b102b" d="M144.955,-947.186C141.574,-840.85 135.331,-644.547 131.833,-534.551"/>
<polygon fill="#5b102b" stroke="#5b102b" points="144.965,-947.498 140.785,-957.636 145.124,-952.496 145.283,-957.493 145.283,-957.493 145.283,-957.493 145.124,-952.496 149.781,-957.35 144.965,-947.498 144.965,-947.498"/>
<polygon fill="#5b102b" stroke="#5b102b" points="131.831,-534.502 136.011,-524.364 131.672,-529.505 131.513,-524.507 131.513,-524.507 131.513,-524.507 131.672,-529.505 127.016,-524.65 131.831,-534.502 131.831,-534.502"/>
</g>
<!-- Show&#45;&gt;Season -->
<g id="edge11" class="edge"><title>Show&#45;&gt;Season</title>
<path fill="none" stroke="#e2c32d" d="M191.02,-950.473C202.767,-931.664 215.858,-910.703 228.943,-889.75"/>
<ellipse fill="none" stroke="#e2c32d" cx="188.864" cy="-953.926" rx="4.00002" ry="4.00002"/>
<polygon fill="#e2c32d" stroke="#e2c32d" points="229.05,-889.578 238.164,-883.48 231.699,-885.337 234.348,-881.096 234.348,-881.096 234.348,-881.096 231.699,-885.337 230.531,-878.713 229.05,-889.578 229.05,-889.578"/>
</g>
<!-- ActiveRecord::Base -->
<g id="node10" class="node"><title>ActiveRecord::Base</title>
<ellipse fill="none" stroke="black" cx="364.287" cy="-1186.5" rx="81.1422" ry="18"/>
<text text-anchor="middle" x="364.287" y="-1182.3" font-family="Times,serif" font-size="14.00">ActiveRecord::Base</text>
</g>
<!-- ActiveRecord::Base&#45;&gt;Contestant -->
<g id="edge2" class="edge"><title>ActiveRecord::Base&#45;&gt;Contestant</title>
<path fill="none" stroke="black" d="M358.61,-1168.36C354.115,-1154.8 347.455,-1134.69 340.507,-1113.72"/>
</g>
<!-- ActiveRecord::Base&#45;&gt;Episode -->
<g id="edge4" class="edge"><title>ActiveRecord::Base&#45;&gt;Episode</title>
<path fill="none" stroke="black" d="M329.398,-1170.04C312.683,-1163.11 292.224,-1155.33 273.287,-1150 185.5,-1125.31 129.84,-1183.91 71.2869,-1114 -70.8709,-944.267 33.7399,-656.575 94.2467,-524.535"/>
</g>
<!-- ActiveRecord::Base&#45;&gt;League -->
<g id="edge7" class="edge"><title>ActiveRecord::Base&#45;&gt;League</title>
<path fill="none" stroke="black" d="M382.812,-1168.74C396.089,-1155.4 412.882,-1135.46 420.287,-1114 447.049,-1036.43 399.506,-640.084 395.287,-624 392.123,-611.937 388.146,-599.668 383.673,-587.529"/>
</g>
<!-- ActiveRecord::Base&#45;&gt;Season -->
<g id="edge10" class="edge"><title>ActiveRecord::Base&#45;&gt;Season</title>
<path fill="none" stroke="black" d="M375.111,-1168.37C383.289,-1154.36 393.839,-1133.71 398.287,-1114 416.386,-1033.79 417.786,-1008.88 398.287,-929 395.22,-916.438 391.046,-903.769 386.172,-891.318"/>
</g>
<!-- ActiveRecord::Base&#45;&gt;Show -->
<g id="edge13" class="edge"><title>ActiveRecord::Base&#45;&gt;Show</title>
<path fill="none" stroke="black" d="M324.344,-1170.69C294.361,-1158.36 253.309,-1138.85 222.287,-1114 212.027,-1105.78 202.209,-1095.95 193.254,-1085.84"/>
</g>
<!-- ActiveRecord::Base&#45;&gt;User -->
<g id="edge14" class="edge"><title>ActiveRecord::Base&#45;&gt;User</title>
<path fill="none" stroke="black" d="M388.69,-1169.19C405.712,-1156.35 427.276,-1136.85 438.287,-1114 569.108,-842.492 563.032,-479.263 547.14,-282.852"/>
</g>
</g>
</svg>
