<?xml version="1.0" encoding="UTF-8" standalone="no"?>
<!DOCTYPE svg PUBLIC "-//W3C//DTD SVG 1.1//EN"
 "http://www.w3.org/Graphics/SVG/1.1/DTD/svg11.dtd">
<!-- Generated by graphviz version 2.38.0 (20140413.2041)
 -->
<!-- Title: models_diagram Pages: 1 -->
<svg width="455pt" height="369pt"
 viewBox="0.00 0.00 455.45 369.00" xmlns="http://www.w3.org/2000/svg" xmlns:xlink="http://www.w3.org/1999/xlink">
<g id="graph0" class="graph" transform="scale(1 1) rotate(0) translate(4 365)">
<title>models_diagram</title>
<polygon fill="none" stroke="none" points="-4,4 -4,-365 451.45,-365 451.45,4 -4,4"/>
<!-- _diagram_info -->
<g id="node1" class="node"><title>_diagram_info</title>
<text text-anchor="start" x="8" y="-346.6" font-family="Times,serif" font-size="13.00">Models diagram</text>
<text text-anchor="start" x="8" y="-333.6" font-family="Times,serif" font-size="13.00">Date: Nov 23 2015 &#45; 12:11</text>
<text text-anchor="start" x="8" y="-320.6" font-family="Times,serif" font-size="13.00">Migration version: 20151123200216</text>
<text text-anchor="start" x="8" y="-307.6" font-family="Times,serif" font-size="13.00">Generated by RailRoady 1.4.1</text>
<text text-anchor="start" x="8" y="-294.6" font-family="Times,serif" font-size="13.00">http://railroady.prestonlee.com</text>
</g>
<!-- Contestant -->
<g id="node2" class="node"><title>Contestant</title>
<ellipse fill="none" stroke="black" cx="268.45" cy="-234" rx="47.8668" ry="18"/>
<text text-anchor="middle" x="268.45" y="-229.8" font-family="Times,serif" font-size="14.00">Contestant</text>
</g>
<!-- Season -->
<g id="node7" class="node"><title>Season</title>
<ellipse fill="none" stroke="black" cx="268.45" cy="-162" rx="35.3216" ry="18"/>
<text text-anchor="middle" x="268.45" y="-157.8" font-family="Times,serif" font-size="14.00">Season</text>
</g>
<!-- Contestant&#45;&gt;Season -->
<g id="edge1" class="edge"><title>Contestant&#45;&gt;Season</title>
<path fill="none" stroke="#4c0ba6" d="M268.45,-205.665C268.45,-200.687 268.45,-195.491 268.45,-190.507"/>
<polygon fill="#4c0ba6" stroke="#4c0ba6" points="268.45,-205.697 263.95,-215.697 268.45,-210.697 268.45,-215.697 268.45,-215.697 268.45,-215.697 268.45,-210.697 272.95,-215.697 268.45,-205.697 268.45,-205.697"/>
<polygon fill="#4c0ba6" stroke="#4c0ba6" points="268.45,-190.104 272.95,-180.104 268.45,-185.104 268.45,-180.104 268.45,-180.104 268.45,-180.104 268.45,-185.104 263.95,-180.104 268.45,-190.104 268.45,-190.104"/>
</g>
<!-- Elimination -->
<g id="node3" class="node"><title>Elimination</title>
<ellipse fill="none" stroke="black" cx="323.45" cy="-18" rx="51.726" ry="18"/>
<text text-anchor="middle" x="323.45" y="-13.8" font-family="Times,serif" font-size="14.00">Elimination</text>
</g>
<!-- Episode -->
<g id="node4" class="node"><title>Episode</title>
<ellipse fill="none" stroke="black" cx="172.45" cy="-90" rx="38.6955" ry="18"/>
<text text-anchor="middle" x="172.45" y="-85.8" font-family="Times,serif" font-size="14.00">Episode</text>
</g>
<!-- Fantasy -->
<g id="node5" class="node"><title>Fantasy</title>
<ellipse fill="none" stroke="black" cx="216.45" cy="-18" rx="37.7352" ry="18"/>
<text text-anchor="middle" x="216.45" y="-13.8" font-family="Times,serif" font-size="14.00">Fantasy</text>
</g>
<!-- League -->
<g id="node6" class="node"><title>League</title>
<ellipse fill="none" stroke="black" cx="323.45" cy="-90" rx="36.2558" ry="18"/>
<text text-anchor="middle" x="323.45" y="-85.8" font-family="Times,serif" font-size="14.00">League</text>
</g>
<!-- League&#45;&gt;Elimination -->
<g id="edge3" class="edge"><title>League&#45;&gt;Elimination</title>
<path fill="none" stroke="black" d="M323.45,-71.6966C323.45,-60.8463 323.45,-46.9167 323.45,-36.1043"/>
</g>
<!-- League&#45;&gt;Fantasy -->
<g id="edge5" class="edge"><title>League&#45;&gt;Fantasy</title>
<path fill="none" stroke="black" d="M302.31,-75.1703C283.673,-62.978 256.645,-45.2957 237.912,-33.0406"/>
</g>
<!-- User -->
<g id="node9" class="node"><title>User</title>
<ellipse fill="none" stroke="black" cx="420.45" cy="-18" rx="27" ry="18"/>
<text text-anchor="middle" x="420.45" y="-13.8" font-family="Times,serif" font-size="14.00">User</text>
</g>
<!-- League&#45;&gt;User -->
<g id="edge6" class="edge"><title>League&#45;&gt;User</title>
<path fill="none" stroke="#9b0a9e" d="M351.336,-68.8756C364.938,-59.0601 381.197,-47.3267 394.527,-37.7071"/>
<polygon fill="#9b0a9e" stroke="#9b0a9e" points="351.188,-68.9826 340.446,-71.1854 347.134,-71.9085 343.079,-74.8345 343.079,-74.8345 343.079,-74.8345 347.134,-71.9085 345.712,-78.4835 351.188,-68.9826 351.188,-68.9826"/>
<polygon fill="#9b0a9e" stroke="#9b0a9e" points="394.697,-37.5842 405.44,-35.3813 398.752,-34.6582 402.806,-31.7323 402.806,-31.7323 402.806,-31.7323 398.752,-34.6582 400.173,-28.0832 394.697,-37.5842 394.697,-37.5842"/>
</g>
<!-- Season&#45;&gt;Episode -->
<g id="edge9" class="edge"><title>Season&#45;&gt;Episode</title>
<path fill="none" stroke="#026f99" d="M242.557,-142.12C229.654,-132.711 214.024,-121.314 200.799,-111.671"/>
<ellipse fill="none" stroke="#026f99" cx="245.791" cy="-144.478" rx="4.00002" ry="4.00002"/>
<polygon fill="#026f99" stroke="#026f99" points="200.589,-111.518 195.16,-101.99 196.549,-108.572 192.509,-105.626 192.509,-105.626 192.509,-105.626 196.549,-108.572 189.857,-109.262 200.589,-111.518 200.589,-111.518"/>
</g>
<!-- Season&#45;&gt;League -->
<g id="edge8" class="edge"><title>Season&#45;&gt;League</title>
<path fill="none" stroke="#4f05b0" d="M285.971,-138.7C291.853,-131.214 298.44,-122.831 304.431,-115.206"/>
<ellipse fill="none" stroke="#4f05b0" cx="283.401" cy="-141.971" rx="4.00002" ry="4.00002"/>
<polygon fill="#4f05b0" stroke="#4f05b0" points="304.459,-115.17 314.176,-110.087 307.548,-111.239 310.637,-107.307 310.637,-107.307 310.637,-107.307 307.548,-111.239 307.099,-104.527 304.459,-115.17 304.459,-115.17"/>
</g>
<!-- Show -->
<g id="node8" class="node"><title>Show</title>
<ellipse fill="none" stroke="black" cx="172.45" cy="-234" rx="30.0121" ry="18"/>
<text text-anchor="middle" x="172.45" y="-229.8" font-family="Times,serif" font-size="14.00">Show</text>
</g>
<!-- Show&#45;&gt;Episode -->
<g id="edge12" class="edge"><title>Show&#45;&gt;Episode</title>
<path fill="none" stroke="#db9f5f" d="M172.45,-205.679C172.45,-180.599 172.45,-143.627 172.45,-118.493"/>
<polygon fill="#db9f5f" stroke="#db9f5f" points="172.45,-205.871 167.95,-215.871 172.45,-210.871 172.45,-215.871 172.45,-215.871 172.45,-215.871 172.45,-210.871 176.95,-215.872 172.45,-205.871 172.45,-205.871"/>
<polygon fill="#db9f5f" stroke="#db9f5f" points="172.45,-118.189 176.95,-108.189 172.45,-113.189 172.45,-108.189 172.45,-108.189 172.45,-108.189 172.45,-113.189 167.95,-108.189 172.45,-118.189 172.45,-118.189"/>
</g>
<!-- Show&#45;&gt;Season -->
<g id="edge11" class="edge"><title>Show&#45;&gt;Season</title>
<path fill="none" stroke="#507346" d="M197.545,-214.701C210.858,-204.994 227.241,-193.048 240.904,-183.085"/>
<ellipse fill="none" stroke="#507346" cx="194.192" cy="-217.147" rx="4.00002" ry="4.00002"/>
<polygon fill="#507346" stroke="#507346" points="240.928,-183.068 251.66,-180.812 244.968,-180.122 249.008,-177.176 249.008,-177.176 249.008,-177.176 244.968,-180.122 246.357,-173.54 240.928,-183.068 240.928,-183.068"/>
</g>
<!-- ActiveRecord::Base -->
<g id="node10" class="node"><title>ActiveRecord::Base</title>
<ellipse fill="none" stroke="black" cx="306.45" cy="-324.5" rx="81.1422" ry="18"/>
<text text-anchor="middle" x="306.45" y="-320.3" font-family="Times,serif" font-size="14.00">ActiveRecord::Base</text>
</g>
<!-- ActiveRecord::Base&#45;&gt;Contestant -->
<g id="edge2" class="edge"><title>ActiveRecord::Base&#45;&gt;Contestant</title>
<path fill="none" stroke="black" d="M299.123,-306.436C292.394,-290.765 282.476,-267.666 275.754,-252.011"/>
</g>
<!-- ActiveRecord::Base&#45;&gt;Episode -->
<g id="edge4" class="edge"><title>ActiveRecord::Base&#45;&gt;Episode</title>
<path fill="none" stroke="black" d="M268.615,-308.469C218.313,-288.399 135.46,-255.005 133.45,-252 102.754,-206.099 140.039,-138.487 160.6,-107.55"/>
</g>
<!-- ActiveRecord::Base&#45;&gt;League -->
<g id="edge7" class="edge"><title>ActiveRecord::Base&#45;&gt;League</title>
<path fill="none" stroke="black" d="M317.589,-306.416C326.005,-292.43 336.865,-271.792 341.45,-252 353.381,-200.488 338.081,-137.806 329.111,-108.14"/>
</g>
<!-- ActiveRecord::Base&#45;&gt;Season -->
<g id="edge10" class="edge"><title>ActiveRecord::Base&#45;&gt;Season</title>
<path fill="none" stroke="black" d="M315.276,-306.406C325.265,-284.584 338.545,-246.059 325.45,-216 318.218,-199.4 302.939,-185.657 290.02,-176.328"/>
</g>
<!-- ActiveRecord::Base&#45;&gt;Show -->
<g id="edge13" class="edge"><title>ActiveRecord::Base&#45;&gt;Show</title>
<path fill="none" stroke="black" d="M281.872,-307.268C256.032,-290.202 215.89,-263.69 192.082,-247.966"/>
</g>
<!-- ActiveRecord::Base&#45;&gt;User -->
<g id="edge14" class="edge"><title>ActiveRecord::Base&#45;&gt;User</title>
<path fill="none" stroke="black" d="M321.101,-306.671C332.472,-292.829 347.866,-272.261 357.45,-252 393.465,-175.861 411.763,-75.6465 417.963,-36.0999"/>
</g>
</g>
</svg>
